<svg width="25" height="20" viewBox="0 0 25 20" fill="none" xmlns="http://www.w3.org/2000/svg">
<path d="M2.53455 0.894531H22.3158C23.4775 0.894531 24.4252 1.84122 24.4252 3.00391V17.0664C24.4252 18.2252 23.4817 19.1758 22.3158 19.1758H2.53455C1.3758 19.1758 0.425171 18.2323 0.425171 17.0664V3.00391C0.425171 1.84516 1.36867 0.894531 2.53455 0.894531ZM2.82583 2.30078L12.3805 11.8555L22.0177 2.30078H2.82583ZM23.0189 16.7752V3.28839L16.2465 10.0028L23.0189 16.7752ZM22.0246 17.7695L15.2478 10.9928L12.8733 13.347C12.5984 13.6195 12.1548 13.6186 11.8811 13.3448L9.5658 11.0295L2.82578 17.7695H22.0246ZM1.83142 16.7752L8.57144 10.0352L1.83142 3.29509V16.7752Z" fill="#6D6D6D"/>
</svg>
