<svg width="36" height="36" viewBox="0 0 36 36" fill="none" xmlns="http://www.w3.org/2000/svg">
<path d="M34.9686 17.5836C34.3956 17.5836 33.9372 18.0421 33.9372 18.6151V27.9971C33.9372 30.5488 31.8591 32.6193 29.3149 32.6193H6.68506C4.13328 32.6193 2.06282 30.5412 2.06282 27.9971V18.4623C2.06282 17.8893 1.60441 17.4308 1.03141 17.4308C0.458404 17.4308 0 17.8893 0 18.4623V27.9971C0 31.6872 3.00255 34.6821 6.68506 34.6821H29.3149C33.0051 34.6821 36 31.6796 36 27.9971V18.6151C36 18.0497 35.5416 17.5836 34.9686 17.5836Z" fill="black"/>
<path d="M12.1706 9.63797L16.9686 4.84V25.7662C16.9686 26.3392 17.427 26.7976 18 26.7976C18.573 26.7976 19.0314 26.3392 19.0314 25.7662V4.84L23.8293 9.63797C24.028 9.83661 24.2954 9.94357 24.5551 9.94357C24.8225 9.94357 25.0823 9.84425 25.2809 9.63797C25.6859 9.23304 25.6859 8.58364 25.2809 8.17871L18.7258 1.62353C18.5348 1.43253 18.2674 1.31793 18 1.31793C17.7249 1.31793 17.4652 1.42489 17.2742 1.62353L10.719 8.17871C10.3141 8.58364 10.3141 9.23304 10.719 9.63797C11.1163 10.0352 11.7733 10.0352 12.1706 9.63797Z" fill="black"/>
</svg>
