<svg width="24" height="24" viewBox="0 0 24 24" fill="none" xmlns="http://www.w3.org/2000/svg">
<path d="M16.727 15.5791L16.7274 15.5793C17.5352 15.8477 18.2378 16.3637 18.7355 17.0542C19.2332 17.7446 19.5007 18.5743 19.4999 19.4255V19.4259C19.4999 19.4455 19.4921 19.4644 19.4782 19.4783C19.4643 19.4922 19.4455 19.5 19.4258 19.5H4.50403C4.48436 19.5 4.46552 19.4922 4.45164 19.4783C4.43773 19.4644 4.42993 19.4455 4.42993 19.4259L4.42993 19.4255C4.42921 18.5743 4.69669 17.7446 5.19439 17.0542C5.69209 16.3637 6.3947 15.8477 7.20241 15.5793L7.20287 15.5791L9.64602 14.7648L9.64721 14.7644C9.6545 14.7619 9.66217 14.7606 9.66996 14.7606H14.2597C14.2676 14.7606 14.2755 14.7619 14.2829 14.7644L14.2838 14.7648L16.727 15.5791Z" stroke="#6D6D6D"/>
<path d="M11.9616 4.42999C12.7422 4.43021 13.4907 4.74043 14.0426 5.29246C14.5946 5.84451 14.9046 6.59317 14.9046 7.37379V9.66542C14.8918 10.4369 14.5767 11.1726 14.0268 11.7141C13.4761 12.2565 12.7342 12.5605 11.9612 12.5605C11.1883 12.5605 10.4463 12.2565 9.89562 11.7141C9.34578 11.1726 9.03059 10.4369 9.01782 9.66542V7.37379C9.01782 6.59305 9.32797 5.84428 9.88004 5.29221C10.4321 4.74017 11.1808 4.43002 11.9615 4.42999H11.9616Z" stroke="#6D6D6D"/>
</svg>
