<svg width="31" height="31" viewBox="0 0 31 31" fill="none" xmlns="http://www.w3.org/2000/svg">
<path d="M15.4202 22.6347C15.9056 22.6347 16.2991 22.241 16.2991 21.7558V18.1149C16.2991 17.6295 15.9056 17.236 15.4202 17.236C14.9349 17.236 14.5413 17.6295 14.5413 18.1149V21.7558C14.5413 22.241 14.9349 22.6347 15.4202 22.6347Z" fill="#6D6D6D"/>
<path d="M24.6515 10.2034H20.8394V6.2797C20.8394 3.57156 18.4084 1.3685 15.4202 1.3685C12.4322 1.3685 10.0012 3.57156 10.0012 6.2797V10.2034H6.18888C5.74399 10.2034 5.38342 10.5642 5.38342 11.0088V21.3097C5.38342 25.4737 8.77117 28.8615 12.9352 28.8615H17.9054C22.0694 28.8615 25.4572 25.4737 25.4572 21.3097V11.0088C25.457 10.5642 25.0964 10.2034 24.6515 10.2034ZM11.6121 6.2797C11.6121 4.45987 13.3203 2.97942 15.4202 2.97942C17.5201 2.97942 19.2285 4.45987 19.2285 6.2797V10.2034H11.6121V6.2797ZM23.846 21.3097C23.846 24.5854 21.1811 27.2506 17.9052 27.2506H12.9352C9.65949 27.2506 6.99434 24.5854 6.99434 21.3097V11.8143H23.846V21.3097Z" fill="#6D6D6D"/>
</svg>
