<svg width="29" height="28" viewBox="0 0 29 28" fill="none" xmlns="http://www.w3.org/2000/svg">
<path d="M25.3877 14.6299H5.27053C5.02801 14.6299 4.79542 14.5341 4.62394 14.3634C4.45245 14.1927 4.35611 13.9613 4.35611 13.7199C4.35611 13.4786 4.45245 13.2471 4.62394 13.0765C4.79542 12.9058 5.02801 12.8099 5.27053 12.8099H25.3877C25.6302 12.8099 25.8628 12.9058 26.0343 13.0765C26.2058 13.2471 26.3021 13.4786 26.3021 13.7199C26.3021 13.9613 26.2058 14.1927 26.0343 14.3634C25.8628 14.5341 25.6302 14.6299 25.3877 14.6299Z" fill="#001B30"/>
<path d="M25.3877 7.65331H5.27053C5.02801 7.65331 4.79542 7.55744 4.62394 7.38678C4.45245 7.21612 4.35611 6.98466 4.35611 6.74331C4.35611 6.50197 4.45245 6.2705 4.62394 6.09985C4.79542 5.92919 5.02801 5.83331 5.27053 5.83331H25.3877C25.6302 5.83331 25.8628 5.92919 26.0343 6.09985C26.2058 6.2705 26.3021 6.50197 26.3021 6.74331C26.3021 6.98466 26.2058 7.21612 26.0343 7.38678C25.8628 7.55744 25.6302 7.65331 25.3877 7.65331Z" fill="#001B30"/>
<path d="M17.0337 21.6066H4.9071C4.6023 21.6066 4.35611 21.1994 4.35611 20.6966C4.35611 20.1937 4.60347 19.7866 4.9071 19.7866H17.0337C17.3385 19.7866 17.5847 20.1937 17.5847 20.6966C17.5847 21.1994 17.3385 21.6066 17.0337 21.6066Z" fill="#001B30"/>
</svg>
